# xmcd
#
# Track frame offsets: 
#        150
#        19304
#        37131
#        57267
#        72198
#        88467
#        105708
#        121797
#        137925
#        157929
#        175287
#        194746
#        210712
#        226281
#        242418
#        256964
#        276832
#
# Disc length: 3912 seconds
#
# Revision: 0
# Processed by: cddbd v1.5.2PL0 Copyright (c) Steve Scherf et al.
# Submitted via: ExactAudioCopy v0.99pb3
#
DISCID=fb0f4611
DTITLE=Various Artist - I Will Always Love You
DYEAR=2008
DGENRE=Country
TTITLE0=She's My Kind of Rain-Tim McGraw
TTITLE1=Some People-LeAnn Rimes
TTITLE2=Amazed-Lonestar
TTITLE3=I Will Always Love You-Dolly Parton with Vince Gill
TTITLE4=One More Day-Diamond Rio
TTITLE5=Baby, Now That I Found You-Alison Kraus and Union Station
TTITLE6=Forever and Ever, Amen-Randy Travis
TTITLE7=Only Love-Wynonna
TTITLE8=I Swear-John Michael Montgomery
TTITLE9=Because You Love Me-Jo Dee Messina
TTITLE10=Whenever You Come Around-Vince Gill
TTITLE11=Good Morning Beautiful-Steve Holy
TTITLE12=More Than You'll Ever Know-Travis Tritt
TTITLE13=Always Sixteen-Billy Ray Cyrus
TTITLE14=With This Ring-Sawyer Brown
TTITLE15=Young Love-The Judds
TTITLE16=I Do-Paul Brandt
EXTD=
EXTT0=
EXTT1=
EXTT2=
EXTT3=
EXTT4=
EXTT5=
EXTT6=
EXTT7=
EXTT8=
EXTT9=
EXTT10=
EXTT11=
EXTT12=
EXTT13=
EXTT14=
EXTT15=
EXTT16=
PLAYORDER=
